<mxfile host="Electron" modified="2024-03-08T20:23:13.877Z" agent="Mozilla/5.0 (X11; Linux x86_64) AppleWebKit/537.36 (KHTML, like Gecko) draw.io/23.1.5 Chrome/120.0.6099.109 Electron/28.1.0 Safari/537.36" etag="HjyZAv3wd6BTJ-9OMM6Z" version="23.1.5" type="device">
  <diagram id="STEBfEphsbRQPfoHGECy" name="Página-1">
    <mxGraphModel dx="989" dy="578" grid="1" gridSize="10" guides="1" tooltips="1" connect="1" arrows="1" fold="1" page="1" pageScale="1" pageWidth="827" pageHeight="1169" math="0" shadow="0">
      <root>
        <mxCell id="0" />
        <mxCell id="1" parent="0" />
        <mxCell id="hQvGvdslbpYfb55w5hF3-3" value="«componente»&lt;br&gt;&lt;b&gt;HttpClient&lt;/b&gt;" style="html=1;dropTarget=0;whiteSpace=wrap;" parent="1" vertex="1">
          <mxGeometry x="300" y="155" width="180" height="90" as="geometry" />
        </mxCell>
        <mxCell id="hQvGvdslbpYfb55w5hF3-4" value="" style="shape=module;jettyWidth=8;jettyHeight=4;" parent="hQvGvdslbpYfb55w5hF3-3" vertex="1">
          <mxGeometry x="1" width="20" height="20" relative="1" as="geometry">
            <mxPoint x="-27" y="7" as="offset" />
          </mxGeometry>
        </mxCell>
        <mxCell id="hQvGvdslbpYfb55w5hF3-103" value="«componente»&lt;br&gt;&lt;b&gt;Response&lt;/b&gt;" style="html=1;dropTarget=0;whiteSpace=wrap;" parent="1" vertex="1">
          <mxGeometry x="70" y="210" width="130" height="60" as="geometry" />
        </mxCell>
        <mxCell id="hQvGvdslbpYfb55w5hF3-104" value="" style="shape=module;jettyWidth=8;jettyHeight=4;" parent="hQvGvdslbpYfb55w5hF3-103" vertex="1">
          <mxGeometry x="1" width="20" height="20" relative="1" as="geometry">
            <mxPoint x="-27" y="7" as="offset" />
          </mxGeometry>
        </mxCell>
        <mxCell id="hQvGvdslbpYfb55w5hF3-105" value="«componente»&lt;br&gt;&lt;b&gt;TwilioHttpClient&lt;/b&gt;" style="html=1;dropTarget=0;whiteSpace=wrap;" parent="1" vertex="1">
          <mxGeometry x="150" y="355" width="150" height="60" as="geometry" />
        </mxCell>
        <mxCell id="hQvGvdslbpYfb55w5hF3-106" value="" style="shape=module;jettyWidth=8;jettyHeight=4;" parent="hQvGvdslbpYfb55w5hF3-105" vertex="1">
          <mxGeometry x="1" width="20" height="20" relative="1" as="geometry">
            <mxPoint x="-27" y="7" as="offset" />
          </mxGeometry>
        </mxCell>
        <mxCell id="hQvGvdslbpYfb55w5hF3-107" value="«componente»&lt;br&gt;&lt;b&gt;Request&lt;/b&gt;" style="html=1;dropTarget=0;whiteSpace=wrap;" parent="1" vertex="1">
          <mxGeometry x="70" y="130" width="130" height="60" as="geometry" />
        </mxCell>
        <mxCell id="hQvGvdslbpYfb55w5hF3-108" value="" style="shape=module;jettyWidth=8;jettyHeight=4;" parent="hQvGvdslbpYfb55w5hF3-107" vertex="1">
          <mxGeometry x="1" width="20" height="20" relative="1" as="geometry">
            <mxPoint x="-27" y="7" as="offset" />
          </mxGeometry>
        </mxCell>
        <mxCell id="hQvGvdslbpYfb55w5hF3-109" value="" style="rounded=0;orthogonalLoop=1;jettySize=auto;html=1;endArrow=halfCircle;endFill=0;endSize=6;strokeWidth=1;sketch=0;" parent="1" target="hQvGvdslbpYfb55w5hF3-111" edge="1">
          <mxGeometry relative="1" as="geometry">
            <mxPoint x="300" y="170" as="sourcePoint" />
          </mxGeometry>
        </mxCell>
        <mxCell id="hQvGvdslbpYfb55w5hF3-110" value="" style="rounded=0;orthogonalLoop=1;jettySize=auto;html=1;endArrow=oval;endFill=0;sketch=0;sourcePerimeterSpacing=0;targetPerimeterSpacing=0;endSize=10;" parent="1" target="hQvGvdslbpYfb55w5hF3-111" edge="1">
          <mxGeometry relative="1" as="geometry">
            <mxPoint x="200" y="170" as="sourcePoint" />
          </mxGeometry>
        </mxCell>
        <mxCell id="hQvGvdslbpYfb55w5hF3-111" value="" style="ellipse;whiteSpace=wrap;html=1;align=center;aspect=fixed;fillColor=none;strokeColor=none;resizable=0;perimeter=centerPerimeter;rotatable=0;allowArrows=0;points=[];outlineConnect=1;" parent="1" vertex="1">
          <mxGeometry x="240" y="165" width="10" height="10" as="geometry" />
        </mxCell>
        <mxCell id="hQvGvdslbpYfb55w5hF3-113" value="" style="rounded=0;orthogonalLoop=1;jettySize=auto;html=1;endArrow=halfCircle;endFill=0;endSize=6;strokeWidth=1;sketch=0;" parent="1" edge="1">
          <mxGeometry relative="1" as="geometry">
            <mxPoint x="300" y="230" as="sourcePoint" />
            <mxPoint x="245" y="230" as="targetPoint" />
          </mxGeometry>
        </mxCell>
        <mxCell id="hQvGvdslbpYfb55w5hF3-114" value="" style="rounded=0;orthogonalLoop=1;jettySize=auto;html=1;endArrow=oval;endFill=0;sketch=0;sourcePerimeterSpacing=0;targetPerimeterSpacing=0;endSize=10;" parent="1" edge="1">
          <mxGeometry relative="1" as="geometry">
            <mxPoint x="200" y="230" as="sourcePoint" />
            <mxPoint x="245" y="230" as="targetPoint" />
          </mxGeometry>
        </mxCell>
        <mxCell id="hQvGvdslbpYfb55w5hF3-115" value="" style="ellipse;whiteSpace=wrap;html=1;align=center;aspect=fixed;fillColor=none;strokeColor=none;resizable=0;perimeter=centerPerimeter;rotatable=0;allowArrows=0;points=[];outlineConnect=1;" parent="1" vertex="1">
          <mxGeometry x="240" y="225" width="10" height="10" as="geometry" />
        </mxCell>
        <mxCell id="hQvGvdslbpYfb55w5hF3-126" style="edgeStyle=orthogonalEdgeStyle;rounded=0;orthogonalLoop=1;jettySize=auto;html=1;exitX=0.5;exitY=0;exitDx=0;exitDy=0;entryX=0.5;entryY=1;entryDx=0;entryDy=0;" parent="1" source="hQvGvdslbpYfb55w5hF3-117" target="hQvGvdslbpYfb55w5hF3-122" edge="1">
          <mxGeometry relative="1" as="geometry" />
        </mxCell>
        <mxCell id="hQvGvdslbpYfb55w5hF3-117" value="«componente»&lt;br&gt;&lt;b&gt;TwilioAsyncHttpClient&lt;/b&gt;" style="html=1;dropTarget=0;whiteSpace=wrap;" parent="1" vertex="1">
          <mxGeometry x="315" y="375" width="150" height="60" as="geometry" />
        </mxCell>
        <mxCell id="hQvGvdslbpYfb55w5hF3-118" value="" style="shape=module;jettyWidth=8;jettyHeight=4;" parent="hQvGvdslbpYfb55w5hF3-117" vertex="1">
          <mxGeometry x="1" width="20" height="20" relative="1" as="geometry">
            <mxPoint x="-27" y="7" as="offset" />
          </mxGeometry>
        </mxCell>
        <mxCell id="hQvGvdslbpYfb55w5hF3-119" value="«componente»&lt;br&gt;&lt;b&gt;ValidationHttpClient&lt;/b&gt;" style="html=1;dropTarget=0;whiteSpace=wrap;" parent="1" vertex="1">
          <mxGeometry x="480" y="360" width="150" height="60" as="geometry" />
        </mxCell>
        <mxCell id="hQvGvdslbpYfb55w5hF3-120" value="" style="shape=module;jettyWidth=8;jettyHeight=4;" parent="hQvGvdslbpYfb55w5hF3-119" vertex="1">
          <mxGeometry x="1" width="20" height="20" relative="1" as="geometry">
            <mxPoint x="-27" y="7" as="offset" />
          </mxGeometry>
        </mxCell>
        <mxCell id="hQvGvdslbpYfb55w5hF3-127" style="edgeStyle=orthogonalEdgeStyle;rounded=0;orthogonalLoop=1;jettySize=auto;html=1;entryX=0.5;entryY=1;entryDx=0;entryDy=0;" parent="1" source="hQvGvdslbpYfb55w5hF3-122" target="hQvGvdslbpYfb55w5hF3-3" edge="1">
          <mxGeometry relative="1" as="geometry" />
        </mxCell>
        <mxCell id="hQvGvdslbpYfb55w5hF3-122" value="«componente»&lt;br&gt;&lt;b&gt;AsyncHttpClient&lt;/b&gt;" style="html=1;dropTarget=0;whiteSpace=wrap;" parent="1" vertex="1">
          <mxGeometry x="320" y="285" width="140" height="60" as="geometry" />
        </mxCell>
        <mxCell id="hQvGvdslbpYfb55w5hF3-123" value="" style="shape=module;jettyWidth=8;jettyHeight=4;" parent="hQvGvdslbpYfb55w5hF3-122" vertex="1">
          <mxGeometry x="1" width="20" height="20" relative="1" as="geometry">
            <mxPoint x="-27" y="7" as="offset" />
          </mxGeometry>
        </mxCell>
        <mxCell id="hQvGvdslbpYfb55w5hF3-124" style="edgeStyle=orthogonalEdgeStyle;rounded=0;orthogonalLoop=1;jettySize=auto;html=1;entryX=0.033;entryY=1.005;entryDx=0;entryDy=0;entryPerimeter=0;exitX=0.727;exitY=0.006;exitDx=0;exitDy=0;exitPerimeter=0;" parent="1" source="hQvGvdslbpYfb55w5hF3-105" target="hQvGvdslbpYfb55w5hF3-3" edge="1">
          <mxGeometry relative="1" as="geometry">
            <mxPoint x="270" y="330" as="sourcePoint" />
            <Array as="points">
              <mxPoint x="259" y="270" />
              <mxPoint x="306" y="270" />
            </Array>
          </mxGeometry>
        </mxCell>
        <mxCell id="hQvGvdslbpYfb55w5hF3-125" style="edgeStyle=orthogonalEdgeStyle;rounded=0;orthogonalLoop=1;jettySize=auto;html=1;entryX=0.951;entryY=1.03;entryDx=0;entryDy=0;entryPerimeter=0;" parent="1" target="hQvGvdslbpYfb55w5hF3-3" edge="1">
          <mxGeometry relative="1" as="geometry">
            <mxPoint x="510" y="360" as="sourcePoint" />
            <Array as="points">
              <mxPoint x="510" y="270" />
              <mxPoint x="471" y="270" />
            </Array>
          </mxGeometry>
        </mxCell>
        <mxCell id="hQvGvdslbpYfb55w5hF3-131" value="" style="rounded=0;orthogonalLoop=1;jettySize=auto;html=1;endArrow=halfCircle;endFill=0;endSize=6;strokeWidth=1;sketch=0;exitX=0.5;exitY=0;exitDx=0;exitDy=0;" parent="1" source="hQvGvdslbpYfb55w5hF3-134" target="hQvGvdslbpYfb55w5hF3-133" edge="1">
          <mxGeometry relative="1" as="geometry">
            <mxPoint x="610" y="510" as="sourcePoint" />
          </mxGeometry>
        </mxCell>
        <mxCell id="hQvGvdslbpYfb55w5hF3-132" value="" style="rounded=0;orthogonalLoop=1;jettySize=auto;html=1;endArrow=oval;endFill=0;sketch=0;sourcePerimeterSpacing=0;targetPerimeterSpacing=0;endSize=10;exitX=0.5;exitY=1;exitDx=0;exitDy=0;" parent="1" source="hQvGvdslbpYfb55w5hF3-119" target="hQvGvdslbpYfb55w5hF3-133" edge="1">
          <mxGeometry relative="1" as="geometry">
            <mxPoint x="570" y="510" as="sourcePoint" />
          </mxGeometry>
        </mxCell>
        <mxCell id="hQvGvdslbpYfb55w5hF3-133" value="" style="ellipse;whiteSpace=wrap;html=1;align=center;aspect=fixed;fillColor=none;strokeColor=none;resizable=0;perimeter=centerPerimeter;rotatable=0;allowArrows=0;points=[];outlineConnect=1;" parent="1" vertex="1">
          <mxGeometry x="550" y="435" width="10" height="10" as="geometry" />
        </mxCell>
        <mxCell id="hQvGvdslbpYfb55w5hF3-134" value="«componente»&lt;br&gt;&lt;b&gt;Jwt&lt;/b&gt;" style="html=1;dropTarget=0;whiteSpace=wrap;" parent="1" vertex="1">
          <mxGeometry x="480" y="465" width="150" height="60" as="geometry" />
        </mxCell>
        <mxCell id="hQvGvdslbpYfb55w5hF3-135" value="" style="shape=module;jettyWidth=8;jettyHeight=4;" parent="hQvGvdslbpYfb55w5hF3-134" vertex="1">
          <mxGeometry x="1" width="20" height="20" relative="1" as="geometry">
            <mxPoint x="-27" y="7" as="offset" />
          </mxGeometry>
        </mxCell>
        <mxCell id="hQvGvdslbpYfb55w5hF3-137" value="«componente»&lt;br&gt;&lt;b&gt;ClientBase&lt;/b&gt;" style="html=1;dropTarget=0;whiteSpace=wrap;" parent="1" vertex="1">
          <mxGeometry x="600" y="155" width="180" height="90" as="geometry" />
        </mxCell>
        <mxCell id="hQvGvdslbpYfb55w5hF3-138" value="" style="shape=module;jettyWidth=8;jettyHeight=4;" parent="hQvGvdslbpYfb55w5hF3-137" vertex="1">
          <mxGeometry x="1" width="20" height="20" relative="1" as="geometry">
            <mxPoint x="-27" y="7" as="offset" />
          </mxGeometry>
        </mxCell>
        <mxCell id="hQvGvdslbpYfb55w5hF3-139" value="" style="rounded=0;orthogonalLoop=1;jettySize=auto;html=1;endArrow=halfCircle;endFill=0;endSize=6;strokeWidth=1;sketch=0;exitX=0;exitY=0.5;exitDx=0;exitDy=0;" parent="1" source="hQvGvdslbpYfb55w5hF3-137" target="hQvGvdslbpYfb55w5hF3-141" edge="1">
          <mxGeometry relative="1" as="geometry">
            <mxPoint x="560" y="200" as="sourcePoint" />
          </mxGeometry>
        </mxCell>
        <mxCell id="hQvGvdslbpYfb55w5hF3-140" value="" style="rounded=0;orthogonalLoop=1;jettySize=auto;html=1;endArrow=oval;endFill=0;sketch=0;sourcePerimeterSpacing=0;targetPerimeterSpacing=0;endSize=10;exitX=1;exitY=0.5;exitDx=0;exitDy=0;" parent="1" source="hQvGvdslbpYfb55w5hF3-3" target="hQvGvdslbpYfb55w5hF3-141" edge="1">
          <mxGeometry relative="1" as="geometry">
            <mxPoint x="490" y="205" as="sourcePoint" />
          </mxGeometry>
        </mxCell>
        <mxCell id="hQvGvdslbpYfb55w5hF3-141" value="" style="ellipse;whiteSpace=wrap;html=1;align=center;aspect=fixed;fillColor=none;strokeColor=none;resizable=0;perimeter=centerPerimeter;rotatable=0;allowArrows=0;points=[];outlineConnect=1;" parent="1" vertex="1">
          <mxGeometry x="535" y="195" width="10" height="10" as="geometry" />
        </mxCell>
      </root>
    </mxGraphModel>
  </diagram>
</mxfile>
